<mxfile host="app.diagrams.net" modified="2022-07-19T20:19:06.015Z" agent="5.0 (Windows NT 10.0; Win64; x64) AppleWebKit/537.36 (KHTML, like Gecko) Chrome/103.0.5060.114 Safari/537.36 Edg/103.0.1264.62" etag="j9sbWNzHyvwhbCjknb-M" version="16.5.6" type="github">
  <diagram id="ZHT2CfX-sQs-Wsr_vV68" name="Page-1">
    <mxGraphModel dx="1210" dy="748" grid="1" gridSize="10" guides="1" tooltips="1" connect="1" arrows="1" fold="1" page="1" pageScale="1" pageWidth="827" pageHeight="1169" math="0" shadow="0">
      <root>
        <mxCell id="0" />
        <mxCell id="1" parent="0" />
        <mxCell id="OqSOGSRfQH2XaOpdo0CW-27" value="" style="shape=table;startSize=0;container=1;collapsible=0;childLayout=tableLayout;fillColor=#f5f5f5;fontColor=#333333;strokeColor=#666666;" vertex="1" parent="1">
          <mxGeometry x="80" y="400" width="960" height="240" as="geometry" />
        </mxCell>
        <mxCell id="OqSOGSRfQH2XaOpdo0CW-28" value="" style="shape=tableRow;horizontal=0;startSize=0;swimlaneHead=0;swimlaneBody=0;top=0;left=0;bottom=0;right=0;collapsible=0;dropTarget=0;fillColor=none;points=[[0,0.5],[1,0.5]];portConstraint=eastwest;" vertex="1" parent="OqSOGSRfQH2XaOpdo0CW-27">
          <mxGeometry width="960" height="240" as="geometry" />
        </mxCell>
        <mxCell id="OqSOGSRfQH2XaOpdo0CW-29" value="" style="shape=partialRectangle;html=1;whiteSpace=wrap;connectable=0;overflow=hidden;fillColor=none;top=0;left=0;bottom=0;right=0;pointerEvents=1;" vertex="1" parent="OqSOGSRfQH2XaOpdo0CW-28">
          <mxGeometry width="120" height="240" as="geometry">
            <mxRectangle width="120" height="240" as="alternateBounds" />
          </mxGeometry>
        </mxCell>
        <mxCell id="OqSOGSRfQH2XaOpdo0CW-30" value="" style="shape=partialRectangle;html=1;whiteSpace=wrap;connectable=0;overflow=hidden;fillColor=#fff2cc;top=0;left=0;bottom=0;right=0;pointerEvents=1;strokeColor=#d6b656;horizontal=0;" vertex="1" parent="OqSOGSRfQH2XaOpdo0CW-28">
          <mxGeometry x="120" width="40" height="240" as="geometry">
            <mxRectangle width="40" height="240" as="alternateBounds" />
          </mxGeometry>
        </mxCell>
        <mxCell id="OqSOGSRfQH2XaOpdo0CW-45" value="" style="ellipse;whiteSpace=wrap;html=1;fillColor=#f8cecc;strokeColor=#b85450;" vertex="1" parent="OqSOGSRfQH2XaOpdo0CW-30">
          <mxGeometry y="160" width="10" height="10" as="geometry" />
        </mxCell>
        <mxCell id="OqSOGSRfQH2XaOpdo0CW-48" value="" style="ellipse;whiteSpace=wrap;html=1;fillColor=#f8cecc;strokeColor=#b85450;" vertex="1" parent="OqSOGSRfQH2XaOpdo0CW-30">
          <mxGeometry x="30" y="150" width="10" height="10" as="geometry" />
        </mxCell>
        <mxCell id="OqSOGSRfQH2XaOpdo0CW-56" value="" style="endArrow=none;html=1;rounded=0;entryX=1.003;entryY=0.263;entryDx=0;entryDy=0;entryPerimeter=0;exitX=-0.004;exitY=0.729;exitDx=0;exitDy=0;exitPerimeter=0;strokeWidth=2;strokeColor=#000000;startArrow=none;" edge="1" parent="OqSOGSRfQH2XaOpdo0CW-30" source="OqSOGSRfQH2XaOpdo0CW-45" target="OqSOGSRfQH2XaOpdo0CW-48">
          <mxGeometry width="50" height="50" relative="1" as="geometry">
            <mxPoint x="199.96000000000004" y="567.29" as="sourcePoint" />
            <mxPoint x="1042.88" y="463.1199999999999" as="targetPoint" />
            <Array as="points" />
          </mxGeometry>
        </mxCell>
        <mxCell id="OqSOGSRfQH2XaOpdo0CW-31" value="" style="shape=partialRectangle;html=1;whiteSpace=wrap;connectable=0;overflow=hidden;fillColor=none;top=0;left=0;bottom=0;right=0;pointerEvents=1;" vertex="1" parent="OqSOGSRfQH2XaOpdo0CW-28">
          <mxGeometry x="160" width="120" height="240" as="geometry">
            <mxRectangle width="120" height="240" as="alternateBounds" />
          </mxGeometry>
        </mxCell>
        <mxCell id="OqSOGSRfQH2XaOpdo0CW-32" value="" style="shape=partialRectangle;html=1;whiteSpace=wrap;connectable=0;overflow=hidden;fillColor=#fff2cc;top=0;left=0;bottom=0;right=0;pointerEvents=1;strokeColor=#d6b656;" vertex="1" parent="OqSOGSRfQH2XaOpdo0CW-28">
          <mxGeometry x="280" width="40" height="240" as="geometry">
            <mxRectangle width="40" height="240" as="alternateBounds" />
          </mxGeometry>
        </mxCell>
        <mxCell id="OqSOGSRfQH2XaOpdo0CW-49" value="" style="ellipse;whiteSpace=wrap;html=1;fillColor=#f8cecc;strokeColor=#b85450;" vertex="1" parent="OqSOGSRfQH2XaOpdo0CW-32">
          <mxGeometry y="140" width="10" height="10" as="geometry" />
        </mxCell>
        <mxCell id="OqSOGSRfQH2XaOpdo0CW-50" value="" style="ellipse;whiteSpace=wrap;html=1;fillColor=#f8cecc;strokeColor=#b85450;" vertex="1" parent="OqSOGSRfQH2XaOpdo0CW-32">
          <mxGeometry x="30" y="140" width="10" height="10" as="geometry" />
        </mxCell>
        <mxCell id="OqSOGSRfQH2XaOpdo0CW-33" value="" style="shape=partialRectangle;html=1;whiteSpace=wrap;connectable=0;overflow=hidden;fillColor=none;top=0;left=0;bottom=0;right=0;pointerEvents=1;" vertex="1" parent="OqSOGSRfQH2XaOpdo0CW-28">
          <mxGeometry x="320" width="120" height="240" as="geometry">
            <mxRectangle width="120" height="240" as="alternateBounds" />
          </mxGeometry>
        </mxCell>
        <mxCell id="OqSOGSRfQH2XaOpdo0CW-34" value="Emulsion Film" style="shape=partialRectangle;html=1;whiteSpace=wrap;connectable=0;overflow=hidden;fillColor=#fff2cc;top=0;left=0;bottom=0;right=0;pointerEvents=1;strokeColor=#d6b656;horizontal=0;fontStyle=1;fontSize=14;" vertex="1" parent="OqSOGSRfQH2XaOpdo0CW-28">
          <mxGeometry x="440" width="40" height="240" as="geometry">
            <mxRectangle width="40" height="240" as="alternateBounds" />
          </mxGeometry>
        </mxCell>
        <mxCell id="OqSOGSRfQH2XaOpdo0CW-35" value="" style="shape=partialRectangle;html=1;whiteSpace=wrap;connectable=0;overflow=hidden;fillColor=none;top=0;left=0;bottom=0;right=0;pointerEvents=1;" vertex="1" parent="OqSOGSRfQH2XaOpdo0CW-28">
          <mxGeometry x="480" width="120" height="240" as="geometry">
            <mxRectangle width="120" height="240" as="alternateBounds" />
          </mxGeometry>
        </mxCell>
        <mxCell id="OqSOGSRfQH2XaOpdo0CW-36" value="" style="shape=partialRectangle;html=1;whiteSpace=wrap;connectable=0;overflow=hidden;fillColor=#fff2cc;top=0;left=0;bottom=0;right=0;pointerEvents=1;strokeColor=#d6b656;" vertex="1" parent="OqSOGSRfQH2XaOpdo0CW-28">
          <mxGeometry x="600" width="40" height="240" as="geometry">
            <mxRectangle width="40" height="240" as="alternateBounds" />
          </mxGeometry>
        </mxCell>
        <mxCell id="OqSOGSRfQH2XaOpdo0CW-80" style="edgeStyle=none;rounded=0;orthogonalLoop=1;jettySize=auto;html=1;exitX=0.5;exitY=1;exitDx=0;exitDy=0;entryX=0;entryY=0.5;entryDx=0;entryDy=0;endArrow=none;endFill=0;strokeColor=#000000;strokeWidth=2;" edge="1" parent="OqSOGSRfQH2XaOpdo0CW-36" source="OqSOGSRfQH2XaOpdo0CW-51" target="OqSOGSRfQH2XaOpdo0CW-64">
          <mxGeometry relative="1" as="geometry" />
        </mxCell>
        <mxCell id="OqSOGSRfQH2XaOpdo0CW-51" value="" style="ellipse;whiteSpace=wrap;html=1;fillColor=#f8cecc;strokeColor=#b85450;" vertex="1" parent="OqSOGSRfQH2XaOpdo0CW-36">
          <mxGeometry y="100" width="10" height="10" as="geometry" />
        </mxCell>
        <mxCell id="OqSOGSRfQH2XaOpdo0CW-64" value="" style="ellipse;whiteSpace=wrap;html=1;fillColor=#f8cecc;strokeColor=#b85450;" vertex="1" parent="OqSOGSRfQH2XaOpdo0CW-36">
          <mxGeometry x="30" y="100" width="10" height="10" as="geometry" />
        </mxCell>
        <mxCell id="OqSOGSRfQH2XaOpdo0CW-37" value="" style="shape=partialRectangle;html=1;whiteSpace=wrap;connectable=0;overflow=hidden;fillColor=none;top=0;left=0;bottom=0;right=0;pointerEvents=1;" vertex="1" parent="OqSOGSRfQH2XaOpdo0CW-28">
          <mxGeometry x="640" width="120" height="240" as="geometry">
            <mxRectangle width="120" height="240" as="alternateBounds" />
          </mxGeometry>
        </mxCell>
        <mxCell id="OqSOGSRfQH2XaOpdo0CW-38" value="" style="shape=partialRectangle;html=1;whiteSpace=wrap;connectable=0;overflow=hidden;fillColor=#fff2cc;top=0;left=0;bottom=0;right=0;pointerEvents=1;strokeColor=#d6b656;" vertex="1" parent="OqSOGSRfQH2XaOpdo0CW-28">
          <mxGeometry x="760" width="40" height="240" as="geometry">
            <mxRectangle width="40" height="240" as="alternateBounds" />
          </mxGeometry>
        </mxCell>
        <mxCell id="OqSOGSRfQH2XaOpdo0CW-81" style="edgeStyle=none;rounded=0;orthogonalLoop=1;jettySize=auto;html=1;exitX=1;exitY=0.5;exitDx=0;exitDy=0;entryX=0;entryY=0;entryDx=0;entryDy=0;endArrow=none;endFill=0;strokeColor=#000000;strokeWidth=2;" edge="1" parent="OqSOGSRfQH2XaOpdo0CW-38" source="OqSOGSRfQH2XaOpdo0CW-63" target="OqSOGSRfQH2XaOpdo0CW-62">
          <mxGeometry relative="1" as="geometry" />
        </mxCell>
        <mxCell id="OqSOGSRfQH2XaOpdo0CW-63" value="" style="ellipse;whiteSpace=wrap;html=1;fillColor=#f8cecc;strokeColor=#b85450;" vertex="1" parent="OqSOGSRfQH2XaOpdo0CW-38">
          <mxGeometry y="80" width="10" height="10" as="geometry" />
        </mxCell>
        <mxCell id="OqSOGSRfQH2XaOpdo0CW-62" value="" style="ellipse;whiteSpace=wrap;html=1;fillColor=#f8cecc;strokeColor=#b85450;" vertex="1" parent="OqSOGSRfQH2XaOpdo0CW-38">
          <mxGeometry x="30" y="70" width="10" height="10" as="geometry" />
        </mxCell>
        <mxCell id="OqSOGSRfQH2XaOpdo0CW-39" value="&lt;b style=&quot;font-size: 15px&quot;&gt;Tungsten&amp;nbsp;&lt;br&gt;Layer&lt;/b&gt;" style="shape=partialRectangle;html=1;whiteSpace=wrap;connectable=0;overflow=hidden;fillColor=none;top=0;left=0;bottom=0;right=0;pointerEvents=1;" vertex="1" parent="OqSOGSRfQH2XaOpdo0CW-28">
          <mxGeometry x="800" width="120" height="240" as="geometry">
            <mxRectangle width="120" height="240" as="alternateBounds" />
          </mxGeometry>
        </mxCell>
        <mxCell id="OqSOGSRfQH2XaOpdo0CW-40" value="" style="shape=partialRectangle;html=1;whiteSpace=wrap;connectable=0;overflow=hidden;fillColor=#fff2cc;top=0;left=0;bottom=0;right=0;pointerEvents=1;strokeColor=#d6b656;" vertex="1" parent="OqSOGSRfQH2XaOpdo0CW-28">
          <mxGeometry x="920" width="40" height="240" as="geometry">
            <mxRectangle width="40" height="240" as="alternateBounds" />
          </mxGeometry>
        </mxCell>
        <mxCell id="OqSOGSRfQH2XaOpdo0CW-54" value="" style="endArrow=none;dashed=1;html=1;rounded=0;entryX=1.003;entryY=0.263;entryDx=0;entryDy=0;entryPerimeter=0;exitX=-0.004;exitY=0.729;exitDx=0;exitDy=0;exitPerimeter=0;strokeWidth=2;strokeColor=#FF0000;" edge="1" parent="OqSOGSRfQH2XaOpdo0CW-28" source="OqSOGSRfQH2XaOpdo0CW-28" target="OqSOGSRfQH2XaOpdo0CW-45">
          <mxGeometry width="50" height="50" relative="1" as="geometry">
            <mxPoint x="196.16000000000008" y="574.96" as="sourcePoint" />
            <mxPoint x="1162.88" y="463.1199999999999" as="targetPoint" />
            <Array as="points" />
          </mxGeometry>
        </mxCell>
        <mxCell id="OqSOGSRfQH2XaOpdo0CW-83" style="edgeStyle=none;rounded=0;orthogonalLoop=1;jettySize=auto;html=1;exitX=0;exitY=0.5;exitDx=0;exitDy=0;entryX=1;entryY=0.5;entryDx=0;entryDy=0;endArrow=none;endFill=0;strokeColor=#0000CC;strokeWidth=2;" edge="1" parent="OqSOGSRfQH2XaOpdo0CW-28" source="OqSOGSRfQH2XaOpdo0CW-63" target="OqSOGSRfQH2XaOpdo0CW-64">
          <mxGeometry relative="1" as="geometry" />
        </mxCell>
        <mxCell id="OqSOGSRfQH2XaOpdo0CW-85" style="edgeStyle=none;rounded=0;orthogonalLoop=1;jettySize=auto;html=1;exitX=0.5;exitY=1;exitDx=0;exitDy=0;entryX=1;entryY=0.5;entryDx=0;entryDy=0;endArrow=none;endFill=0;strokeColor=#FF3333;strokeWidth=2;dashed=1;" edge="1" parent="OqSOGSRfQH2XaOpdo0CW-28" source="OqSOGSRfQH2XaOpdo0CW-50" target="OqSOGSRfQH2XaOpdo0CW-51">
          <mxGeometry relative="1" as="geometry" />
        </mxCell>
        <mxCell id="OqSOGSRfQH2XaOpdo0CW-86" style="edgeStyle=none;rounded=0;orthogonalLoop=1;jettySize=auto;html=1;exitX=0.5;exitY=0;exitDx=0;exitDy=0;dashed=1;endArrow=none;endFill=0;strokeColor=#FF3333;strokeWidth=2;" edge="1" parent="OqSOGSRfQH2XaOpdo0CW-28" source="OqSOGSRfQH2XaOpdo0CW-62" target="OqSOGSRfQH2XaOpdo0CW-28">
          <mxGeometry relative="1" as="geometry" />
        </mxCell>
        <mxCell id="OqSOGSRfQH2XaOpdo0CW-44" value="" style="ellipse;whiteSpace=wrap;html=1;aspect=fixed;direction=south;" vertex="1" parent="1">
          <mxGeometry x="NaN" y="NaN" width="NaN" as="geometry" />
        </mxCell>
        <mxCell id="OqSOGSRfQH2XaOpdo0CW-78" style="rounded=0;orthogonalLoop=1;jettySize=auto;html=1;exitX=1;exitY=0.5;exitDx=0;exitDy=0;strokeColor=#3333FF;strokeWidth=2;endArrow=none;endFill=0;" edge="1" parent="1" source="OqSOGSRfQH2XaOpdo0CW-49">
          <mxGeometry relative="1" as="geometry">
            <mxPoint x="230" y="560" as="targetPoint" />
          </mxGeometry>
        </mxCell>
        <mxCell id="OqSOGSRfQH2XaOpdo0CW-84" style="edgeStyle=none;rounded=0;orthogonalLoop=1;jettySize=auto;html=1;exitX=0.5;exitY=1;exitDx=0;exitDy=0;endArrow=none;endFill=0;strokeColor=#000000;strokeWidth=2;" edge="1" parent="1" source="OqSOGSRfQH2XaOpdo0CW-50">
          <mxGeometry relative="1" as="geometry">
            <mxPoint x="370" y="550" as="targetPoint" />
          </mxGeometry>
        </mxCell>
      </root>
    </mxGraphModel>
  </diagram>
</mxfile>
